<svg xmlns="http://www.w3.org/2000/svg" width="14" height="14" viewBox="0 0 14 14">
  <path id="qr-code-icon" d="M2.5,1A1.508,1.508,0,0,0,1,2.5v2A1.508,1.508,0,0,0,2.5,6H3V7H4V6h.5A1.508,1.508,0,0,0,6,4.5v-2A1.508,1.508,0,0,0,4.5,1ZM4,7V8H5V7ZM4,8H3V9H4ZM3,8V7H2V8Zm8.5-7A1.508,1.508,0,0,0,10,2.5v2A1.508,1.508,0,0,0,11.5,6H12V7h1V6h.5A1.508,1.508,0,0,0,15,4.5v-2A1.508,1.508,0,0,0,13.5,1ZM13,7V8h1V7Zm0,1H12V9h1Zm0,1v1h1V9Zm0,1H12v1h1Zm-1,0V9H11v1ZM2.5,2h2a.493.493,0,0,1,.5.5v2a.493.493,0,0,1-.5.5h-2A.493.493,0,0,1,2,4.5v-2A.493.493,0,0,1,2.5,2ZM8,2V3H7V4H8V5H9V2Zm3.5,0h2a.493.493,0,0,1,.5.5v2a.493.493,0,0,1-.5.5h-2a.493.493,0,0,1-.5-.5v-2A.493.493,0,0,1,11.5,2ZM3,3V4H4V3Zm9,0V4h1V3ZM6,6V7H9V8h1V6ZM7,8V9H6v1h4V9H8V8ZM2.5,10A1.508,1.508,0,0,0,1,11.5v2A1.508,1.508,0,0,0,2.5,15h2A1.508,1.508,0,0,0,6,13.5v-2A1.508,1.508,0,0,0,4.5,10Zm0,1h2a.493.493,0,0,1,.5.5v2a.493.493,0,0,1-.5.5h-2a.493.493,0,0,1-.5-.5v-2A.493.493,0,0,1,2.5,11ZM7,11v3H8V11ZM3,12v1H4V12Zm7,0v1h1V12Zm1,1v1h1V13Zm1,0h1V12H12Zm1,0v1h1V13Z" transform="translate(-1 -1)" fill="#fff"/>
</svg>
